<svg version="1.1" id="Layer_1" xmlns="http://www.w3.org/2000/svg" xmlns:xlink="http://www.w3.org/1999/xlink" x="0px" y="0px"
	 width="100%" viewBox="0 0 667 215" enable-background="new 0 0 667 215" xml:space="preserve">
<path fill="#FFFFFF" opacity="1.000000" stroke="none" 
	d="
M477.000000,216.000000 
	C318.044891,216.000000 159.589783,216.000000 1.067341,216.000000 
	C1.067341,144.398575 1.067341,72.797081 1.067341,1.097789 
	C223.333313,1.097789 445.666656,1.097789 667.972778,1.097789 
	C667.972778,72.743576 667.972778,144.371796 667.972778,216.000000 
	C604.463684,216.000000 540.981873,216.000000 477.000000,216.000000 
M360.998077,99.005997 
	C360.998077,99.005997 361.040253,99.056900 361.602539,98.803780 
	C362.343353,97.831665 363.084167,96.859558 364.781769,95.958832 
	C432.121338,95.969696 499.460907,95.981628 566.800476,95.982597 
	C567.960693,95.982613 569.120972,95.850128 570.733643,96.156418 
	C571.653992,97.115395 572.574280,98.074379 573.919922,99.506294 
	C574.290283,99.694176 574.660706,99.882057 574.991882,99.983345 
	C574.991882,99.983345 574.898926,100.002991 575.226196,100.606651 
	C586.680725,108.923576 596.862610,107.272446 605.691711,95.930977 
	C611.993835,95.950958 618.299133,96.104805 624.597351,95.957077 
	C632.482300,95.772141 637.033325,91.337868 636.999390,84.205666 
	C636.963440,76.647896 632.302002,72.126328 624.401550,72.017555 
	C621.084961,71.971886 617.767700,71.977928 614.444763,71.197273 
	C614.529358,69.934769 614.613953,68.672272 614.911316,66.746605 
	C614.366943,65.801918 613.822571,64.857224 613.049133,63.221386 
	C610.118591,57.878296 605.582153,58.867928 600.286316,60.166653 
	C597.139954,62.391312 593.993652,64.615967 590.230164,67.023407 
	C589.073242,67.981918 587.916321,68.940437 586.207275,70.204597 
	C585.128601,70.849258 584.049927,71.493927 582.323303,72.029427 
	C581.688721,72.175873 581.054138,72.322327 579.463745,72.197289 
	C578.633789,72.137871 577.803772,72.026588 576.973816,72.026428 
	C507.991058,72.012726 439.008301,72.001373 370.025574,72.040977 
	C368.422516,72.041893 366.819794,72.623741 364.926605,72.297569 
	C361.682861,65.874214 355.431061,65.740349 349.967773,65.639038 
	C351.630066,61.801929 353.111206,58.382969 355.078674,53.841442 
	C346.589600,55.489391 343.658112,59.811359 342.169495,66.009445 
	C340.564178,65.872101 338.958893,65.734756 336.629822,65.207558 
	C329.605560,63.545025 325.282990,67.468735 320.548370,72.215065 
	C294.908783,72.233284 269.269165,72.251511 242.737473,72.303772 
	C240.577484,72.216705 238.417526,72.055084 236.257492,72.053833 
	C207.289383,72.037010 178.321289,72.042564 149.353180,72.042564 
	C142.372864,72.042564 135.392563,72.042564 128.293427,72.042564 
	C125.363327,62.390507 119.749718,54.916416 111.273361,49.948898 
	C97.214043,41.709499 80.186340,43.028717 67.875320,52.776310 
	C56.045128,62.143188 50.490303,77.664543 55.627769,94.368431 
	C59.732788,107.715424 72.875526,118.726471 85.740479,120.079620 
	C105.134155,122.119484 118.409752,113.149597 124.902885,100.430862 
	C126.691559,96.927208 128.626572,95.865143 132.457504,95.877701 
	C169.248917,95.998314 206.041061,95.897736 243.786209,95.987305 
	C270.523468,95.993095 297.260712,95.998886 324.513367,96.371468 
	C325.280029,97.349068 326.046692,98.326675 327.036163,99.920387 
	C329.363800,101.501495 331.691467,103.082603 334.801666,104.883186 
	C339.972687,103.991570 345.104431,102.066246 351.007111,104.743675 
	C352.976257,104.146172 354.945374,103.548676 357.416260,102.891190 
	C357.629364,102.648178 357.842468,102.405167 358.695557,102.010605 
	C359.482910,101.018562 360.270264,100.026520 360.998077,99.005997 
M133.173019,176.016983 
	C132.209473,176.078674 131.245911,176.140366 130.282364,176.202057 
	C130.127914,176.752731 129.973480,177.303421 129.819031,177.854095 
	C132.174210,178.560349 134.509781,179.672058 136.893570,179.787384 
	C137.951828,179.838593 140.173416,177.641495 140.004150,176.877747 
	C139.612518,175.110489 138.084824,173.595016 137.120438,172.133041 
	C137.608780,172.019730 138.810623,171.740891 140.278564,171.400299 
	C139.059677,167.903000 136.560165,167.286224 133.860474,168.064148 
	C132.550339,168.441666 131.594208,170.047684 130.477814,171.097549 
	C131.851883,172.492432 133.225952,173.887299 134.258514,175.677765 
	C134.148788,175.813080 134.039078,175.948395 133.173019,176.016983 
M312.916901,146.239807 
	C311.803040,146.239807 310.689178,146.239807 309.307495,146.239807 
	C310.567749,149.830276 313.211548,150.574814 316.114929,149.873505 
	C317.442657,149.552811 319.591553,147.533493 319.394531,146.943710 
	C318.775787,145.091095 317.220245,143.551346 316.185944,142.111160 
	C316.678070,142.015839 318.011719,141.757523 319.449036,141.479126 
	C318.371857,137.615799 315.692474,137.308167 313.027130,138.063568 
	C311.756195,138.423813 310.860657,140.108612 309.795105,141.193451 
	C311.342041,142.627167 312.888977,144.060898 313.960754,146.058334 
	C313.813721,146.255234 313.666687,146.452133 312.916901,146.239807 
M71.853691,141.076416 
	C71.375000,144.916077 71.556496,148.667725 76.102646,149.794647 
	C80.545059,150.895859 83.351631,148.766068 84.438026,144.304459 
	C84.499001,144.054062 85.500565,144.032684 86.022499,144.950607 
	C86.022499,146.562393 86.022499,148.174179 86.022499,150.083710 
	C92.986465,150.224503 87.179276,140.774170 93.496170,141.071732 
	C93.496170,140.140488 93.496170,139.209244 93.496170,138.311859 
	C90.986763,138.311859 88.684937,138.311859 86.062614,138.311859 
	C86.062614,140.182922 86.062614,142.129715 85.164566,144.345596 
	C82.017998,137.638916 79.408707,135.247574 71.490280,140.853638 
	C71.421478,140.902359 71.200279,140.735840 70.597084,140.054367 
	C70.266243,137.775787 69.935394,135.497192 69.522354,132.652557 
	C68.179932,133.391556 66.486794,133.839417 65.533379,134.932480 
	C61.448135,139.616196 66.227676,144.733246 64.584236,149.534149 
	C68.349052,150.857391 68.429283,148.877640 68.544746,146.429214 
	C68.647728,144.245605 67.127617,141.121689 71.853691,141.076416 
M351.522705,133.953171 
	C350.627747,134.886841 349.334015,135.677399 348.935059,136.789078 
	C348.391205,138.304382 348.529663,140.064590 348.333832,142.168350 
	C342.341064,137.235016 338.961578,136.622086 336.123291,139.651886 
	C333.757690,142.177094 333.448303,145.179810 335.726685,147.726700 
	C340.255402,152.789139 344.160858,149.091980 347.295044,146.528000 
	C348.885284,148.051575 350.168884,149.281403 352.306946,151.329849 
	C352.306946,144.506866 352.306946,139.416351 351.522705,133.953171 
M50.614525,171.644104 
	C51.188068,174.309250 51.761612,176.974396 52.596008,180.851669 
	C53.785980,179.597198 54.934311,178.832825 55.395084,177.770279 
	C55.821152,176.787781 55.201500,175.361359 55.605839,174.357361 
	C56.073982,173.194946 57.157497,172.280350 57.973850,171.258163 
	C58.648712,172.254868 59.705105,173.179184 59.911037,174.264832 
	C60.238426,175.990753 59.998444,177.824310 59.998444,179.810867 
	C61.393166,179.810867 62.336853,179.810867 63.280537,179.810867 
	C63.223190,176.598923 63.766708,173.191162 62.815018,170.270645 
	C62.430214,169.089798 58.802444,168.857819 56.604855,168.426041 
	C55.660515,168.240494 54.588131,168.819214 53.594719,168.750381 
	C50.229763,168.517273 46.874115,168.149887 43.547626,167.836884 
	C42.594887,179.618118 42.594887,179.618118 45.671219,179.588760 
	C47.154671,176.526505 48.440014,173.873184 50.614525,171.644104 
M107.642181,143.361221 
	C108.411438,142.659866 109.180695,141.958527 109.949951,141.257172 
	C110.625259,142.080948 111.741280,142.835220 111.884438,143.742920 
	C112.185463,145.651611 111.975883,147.640823 111.975883,149.814819 
	C113.379128,149.814819 114.320877,149.814819 115.262627,149.814819 
	C115.213257,146.605652 115.766632,143.201141 114.820755,140.282516 
	C114.437126,139.098770 110.810631,138.856613 108.613113,138.421280 
	C107.669754,138.234406 106.595390,138.823746 105.601799,138.754669 
	C102.234955,138.520660 98.877625,138.149948 95.549133,137.834549 
	C94.590782,149.620010 94.590782,149.620010 99.082909,149.571884 
	C99.082909,147.952560 98.808281,146.260010 99.169510,144.716232 
	C99.460335,143.473328 100.519981,142.410324 101.238518,141.267502 
	C102.071480,142.465439 103.267517,143.561234 103.640907,144.888458 
	C104.060501,146.379913 103.737404,148.080322 103.737404,149.863861 
	C109.426903,150.429199 106.729828,146.286148 107.642181,143.361221 
M91.448677,179.674988 
	C91.448677,174.584167 91.448677,169.493362 91.448677,164.364273 
	C86.382973,162.357986 88.685379,167.101181 87.318764,168.015686 
	C84.856651,168.239288 81.658310,168.326462 80.524506,169.900635 
	C79.269951,171.642471 78.965767,175.282852 80.001839,177.091705 
	C80.894966,178.651016 84.223396,178.902878 86.530045,179.531250 
	C87.844376,179.889297 89.268692,179.843567 91.448677,179.674988 
M546.858459,140.627899 
	C546.858459,143.593933 546.858459,146.559952 546.858459,149.520248 
	C551.865601,151.583832 550.028259,146.602341 550.928223,145.484253 
	C553.264099,147.449249 555.229370,149.102463 557.194580,150.755661 
	C557.573425,150.356934 557.952271,149.958206 558.331116,149.559479 
	C557.522705,147.818817 556.714294,146.078156 555.905884,144.337479 
	C556.324524,144.348450 556.743103,144.359421 557.161743,144.370377 
	C557.459167,142.009674 558.711853,138.071732 557.883362,137.569916 
	C554.812866,135.710114 551.056274,134.983109 546.858459,133.600266 
	C546.858459,136.733749 546.858459,138.216232 546.858459,140.627899 
M337.145386,169.312195 
	C334.952850,172.104889 334.272003,175.977875 336.893646,177.732071 
	C339.816772,179.688019 344.083008,179.636658 347.939514,180.498093 
	C347.939514,175.677765 347.939514,171.940308 347.939514,167.722382 
	C344.370026,168.094223 341.072083,168.437790 337.145386,169.312195 
M578.837708,170.106323 
	C575.850952,164.694550 573.128540,163.727737 565.225037,165.424698 
	C565.225037,169.488708 565.211975,173.612595 565.238892,177.736221 
	C565.243042,178.364136 565.432373,178.990829 565.526123,179.557892 
	C575.490051,180.963882 578.829956,178.772171 578.837708,170.106323 
M119.629562,167.878799 
	C115.385162,168.736435 114.230370,171.922928 115.269241,175.343582 
	C115.842041,177.229599 118.203911,179.216583 120.181358,179.859314 
	C122.370956,180.570984 125.042412,179.800156 127.626389,179.668686 
	C127.626389,175.785751 127.626389,172.026810 127.626389,168.279282 
	C125.083519,168.116348 122.763016,167.967651 119.629562,167.878799 
M130.848816,145.340652 
	C130.848816,142.937134 130.848816,140.533615 130.848816,138.258804 
	C127.823982,138.093124 125.496262,137.798447 123.181190,137.876907 
	C119.438385,138.003754 118.059982,140.499481 117.967606,143.851257 
	C117.842781,148.380341 119.739563,149.411301 128.056763,150.049545 
	C131.392365,150.305496 130.824661,148.160004 130.848816,145.340652 
M377.010132,175.756378 
	C377.041077,174.768478 377.246063,173.748764 377.072388,172.798248 
	C376.373138,168.971191 372.565582,166.856110 368.758636,168.086761 
	C365.594879,169.109497 363.816528,172.903244 364.974884,176.158707 
	C366.123322,179.386353 370.470154,181.169128 373.629791,179.474380 
	C374.872070,178.808075 375.758698,177.478745 377.010132,175.756378 
M325.080536,173.848984 
	C325.772552,171.727722 327.650177,169.008896 326.937805,167.595505 
	C324.658295,163.072906 320.148590,165.056000 316.312256,164.929871 
	C316.312256,170.090073 316.312256,174.969589 316.312256,179.849091 
	C316.836609,180.079895 317.360962,180.310715 317.885284,180.541519 
	C318.871979,178.749344 319.858673,176.957184 321.083130,174.733185 
	C321.731445,174.597198 323.024261,174.326004 325.080536,173.848984 
M356.540344,133.955978 
	C356.177612,139.038528 355.768463,144.119492 355.592712,149.208481 
	C355.584167,149.456360 357.621918,149.774902 359.169739,150.182434 
	C359.169739,147.402527 358.947937,145.384399 359.270081,143.457199 
	C359.415405,142.587631 360.644348,141.899200 361.381683,141.128601 
	C362.118988,141.887482 363.207245,142.529846 363.507385,143.433853 
	C363.909027,144.643570 363.429291,146.146011 363.831299,147.355469 
	C364.212769,148.503113 365.242950,149.435120 365.987854,150.461945 
	C368.420532,139.421829 366.797424,137.056183 359.876709,138.162750 
	C358.982819,136.624878 358.196960,135.272827 356.540344,133.955978 
M112.931404,164.961502 
	C109.474075,163.700073 109.474075,163.700073 108.854454,167.295898 
	C106.016350,168.274963 102.980331,168.432251 101.725037,170.008072 
	C100.493568,171.553970 100.460228,174.720673 101.075157,176.834518 
	C101.478752,178.221848 103.853058,179.576157 105.550003,179.913727 
	C107.800026,180.361328 110.250259,179.802490 112.982262,179.656509 
	C112.982262,175.135086 112.982262,170.507797 112.931404,164.961502 
M602.242493,149.976151 
	C604.119568,149.985779 606.144470,150.444412 607.835144,149.887863 
	C609.811890,149.237213 612.346008,148.081421 613.078430,146.446152 
	C613.864014,144.692230 613.624329,141.352966 612.402710,140.107971 
	C610.834412,138.509567 607.841309,138.309158 605.817810,137.626480 
	C604.718201,136.296829 603.573059,134.912170 602.427979,133.527527 
	C602.085266,133.820282 601.742615,134.113052 601.399902,134.405823 
	C601.399902,139.520081 601.399902,144.634323 602.242493,149.976151 
M297.877655,147.330948 
	C297.953400,152.364975 301.771271,149.333496 303.814697,149.896301 
	C304.723114,150.146530 306.029907,148.950546 307.155884,148.411026 
	C306.133881,147.929794 305.105042,147.462357 304.092041,146.962860 
	C303.317108,146.580719 302.562103,146.158035 301.798248,145.753387 
	C302.504150,145.106140 303.133606,144.333298 303.936218,143.845047 
	C304.838348,143.296265 305.896729,143.004349 307.603424,142.308762 
	C304.915131,140.992081 303.267120,140.184921 300.969513,139.059601 
	C303.920166,137.834595 305.667694,137.109100 307.415192,136.383606 
	C307.198029,135.945831 306.980865,135.508072 306.763702,135.070297 
	C303.877289,135.070297 300.990906,135.070297 297.875763,135.070297 
	C297.875763,139.063797 297.875763,142.715836 297.877655,147.330948 
M379.861023,148.362137 
	C381.390320,146.545456 380.874847,145.763550 378.608856,145.973450 
	C377.141907,146.109360 375.684967,146.353653 374.223541,146.549362 
	C374.189392,146.118652 374.155243,145.687943 374.121063,145.257217 
	C376.485413,145.070343 378.849792,144.883469 381.457703,144.677338 
	C381.360291,141.209961 380.492889,138.227295 376.834198,138.116165 
	C374.687988,138.050980 371.433380,139.047424 370.591614,140.602539 
	C369.582123,142.467545 369.791626,145.940430 370.943481,147.812408 
	C372.825562,150.871231 376.171753,150.795319 379.861023,148.362137 
M566.439697,146.890228 
	C566.386414,146.264038 566.333069,145.637848 566.279785,145.011658 
	C568.240601,145.011658 570.201416,145.011658 572.344604,145.011658 
	C572.481445,140.585205 570.973755,138.073334 566.823242,137.859299 
	C563.618591,137.694046 561.378784,139.054337 560.695374,142.417175 
	C560.010620,145.786133 561.005066,148.538635 564.299744,149.665192 
	C567.531921,150.770401 570.406677,150.056580 572.183044,145.621429 
	C570.105042,146.101151 568.730225,146.418549 566.439697,146.890228 
M75.314552,168.862640 
	C71.502403,166.997131 67.986000,167.208801 66.228920,171.443878 
	C64.941757,174.546326 65.544083,177.932159 69.067146,179.440872 
	C72.407997,180.871567 75.460945,180.291000 77.360741,176.034027 
	C74.699142,176.198380 72.454437,176.336975 70.209732,176.475571 
	C70.208946,176.049545 70.208153,175.623505 70.207367,175.197464 
	C72.690788,175.022537 75.174217,174.847610 78.372665,174.622314 
	C77.389198,172.505203 76.660141,170.935760 75.314552,168.862640 
M621.453979,150.077408 
	C623.289612,149.127548 625.125305,148.177673 626.960938,147.227798 
	C626.769043,146.844025 626.577209,146.460251 626.385376,146.076477 
	C624.090149,146.192520 621.794983,146.308548 619.499756,146.424576 
	C619.488403,146.010193 619.477051,145.595810 619.465759,145.181427 
	C621.974548,145.029739 624.483337,144.878052 627.031250,144.723999 
	C627.331726,140.671906 625.790405,138.313049 621.932251,137.899704 
	C618.447144,137.526321 615.981995,139.100647 615.390381,142.575516 
	C614.705322,146.599945 616.345032,149.362259 621.453979,150.077408 
M621.991943,176.242462 
	C621.991943,173.507782 621.991943,170.773117 621.991943,167.930344 
	C619.673828,168.043304 618.049500,168.434402 616.566406,168.132080 
	C613.106445,167.426788 610.143494,168.251434 609.747070,171.824936 
	C609.483032,174.204376 610.499756,178.364487 612.016724,178.951035 
	C614.894653,180.063797 618.544006,179.194534 621.868469,179.047714 
	C621.937012,179.044693 621.951416,177.814850 621.991943,176.242462 
M586.958801,143.585144 
	C586.976074,146.988510 588.457520,149.655121 591.931396,149.829712 
	C594.101807,149.938797 596.346680,148.564499 598.558167,147.855865 
	C598.406372,147.252304 598.254578,146.648727 598.102783,146.045166 
	C595.853516,146.045166 593.604309,146.045166 591.355103,146.045166 
	C591.383545,145.650101 591.412048,145.255020 591.440491,144.859955 
	C593.879822,144.859955 596.319092,144.859955 598.840027,144.859955 
	C599.089478,141.116959 597.852966,138.640335 594.333435,137.998489 
	C590.517212,137.302536 587.908752,138.830887 586.958801,143.585144 
M597.187988,174.938141 
	C597.758423,174.196518 598.904480,173.362076 598.802368,172.728912 
	C598.285278,169.522339 596.263245,167.788757 592.926941,167.834793 
	C589.620056,167.880417 587.563721,169.581482 587.071472,172.818710 
	C586.558533,176.191788 587.845337,178.864273 591.253723,179.790619 
	C594.330688,180.626907 596.995605,179.917221 598.318665,176.062622 
	C595.703674,176.062622 593.512024,176.062622 591.320374,176.062622 
	C591.342896,175.690903 591.365417,175.319183 591.387939,174.947464 
	C593.041199,174.947464 594.694397,174.947464 597.187988,174.938141 
M49.875519,143.481293 
	C49.875519,145.602478 49.875519,147.723648 49.875519,149.844833 
	C50.321270,150.075073 50.767017,150.305313 51.212769,150.535553 
	C52.040512,149.573334 53.151615,148.728149 53.611729,147.614090 
	C54.024433,146.614822 53.472332,145.242828 53.802277,144.176498 
	C54.144577,143.070236 55.035065,142.133591 55.685802,141.122772 
	C56.487938,142.150452 57.502972,143.082687 58.020802,144.237823 
	C58.394672,145.071838 57.793293,146.355942 58.188835,147.164337 
	C58.777584,148.367584 59.862247,149.328201 61.539761,151.370987 
	C62.648113,138.429459 62.418430,138.200180 50.123463,138.219849 
	C50.041737,139.636688 49.958637,141.077438 49.875519,143.481293 
M357.129242,167.963333 
	C355.225403,167.963333 353.321564,167.963333 351.189453,167.963333 
	C351.189453,172.128265 351.189453,175.997574 351.189453,179.866882 
	C351.577606,180.088226 351.965729,180.309570 352.353882,180.530914 
	C353.135254,179.536072 354.026001,178.604050 354.649414,177.518509 
	C354.937958,177.016113 354.519928,176.142487 354.744965,175.562378 
	C355.332916,174.046951 356.098846,172.600571 356.793793,171.126663 
	C357.565948,172.523132 358.417450,173.883896 359.069977,175.334183 
	C359.319458,175.888718 358.856934,176.821411 359.166321,177.279709 
	C359.919128,178.394806 360.933929,179.333023 361.843201,180.342484 
	C362.288971,179.954529 362.734711,179.566574 363.180481,179.178619 
	C361.817871,175.267197 365.894501,169.113693 357.129242,167.963333 
M329.489288,145.695023 
	C328.202972,145.710358 326.916687,145.725693 325.630371,145.741028 
	C325.640350,144.501801 325.266418,143.036453 325.810913,142.112091 
	C326.114899,141.596039 327.944672,141.969757 329.087036,141.959061 
	C330.283356,141.947876 331.479919,141.956543 332.927948,141.956543 
	C331.219604,137.699615 328.033783,136.892807 325.039856,138.353104 
	C323.238708,139.231598 321.255615,142.201752 321.435730,144.026489 
	C321.640625,146.102158 323.780853,148.774597 325.771606,149.700912 
	C328.732635,151.078720 331.420898,149.547577 332.948669,145.883636 
	C331.784027,145.764038 331.014984,145.685043 329.489288,145.695023 
M584.292603,148.339447 
	C586.708618,145.347626 584.583008,145.530975 582.453613,145.701614 
	C581.137512,145.807098 579.819641,145.890564 578.502563,145.983917 
	C578.502563,144.384079 578.502563,142.784256 578.502563,141.188858 
	C581.251709,141.589020 583.176636,141.869217 585.947266,142.272522 
	C583.564514,137.533295 580.452759,136.916031 577.154602,138.486938 
	C573.784180,140.092270 573.013794,143.408035 574.582336,146.586258 
	C576.585022,150.643951 580.004883,151.033020 584.292603,148.339447 
M602.725403,164.969513 
	C601.876831,166.611633 600.241028,168.308273 600.350098,169.884048 
	C600.552368,172.802994 601.390198,175.854050 602.750671,178.435120 
	C603.344788,179.562393 605.878906,179.667145 607.833008,180.339859 
	C606.900879,176.902542 604.920227,173.030396 605.786499,172.226685 
	C610.756287,167.615784 604.822266,167.099777 602.725403,164.969513 
M136.376221,149.939697 
	C137.821075,146.018631 139.265930,142.097565 140.656906,138.322708 
	C138.120346,138.322708 135.841110,138.322708 133.200500,138.322708 
	C133.200500,141.471390 133.041580,144.598969 133.305573,147.690445 
	C133.376892,148.525650 134.729736,149.251434 136.376221,149.939697 
M383.579987,138.309952 
	C382.328735,148.270844 382.742218,149.727936 385.754944,149.580627 
	C387.673950,145.420135 389.319214,141.853180 390.908386,138.407791 
	C388.319855,138.225922 386.337952,138.086670 383.579987,138.309952 
M629.191711,145.382156 
	C629.338074,149.884949 629.338074,149.884949 631.684265,149.560562 
	C633.674622,145.365906 635.334351,141.868103 637.015442,138.325165 
	C634.193787,138.325165 631.829895,138.325165 629.191772,138.325165 
	C629.191772,140.539230 629.191772,142.501862 629.191711,145.382156 
M44.684048,150.009109 
	C45.483627,149.300095 46.935913,148.625076 46.974903,147.876450 
	C47.197250,143.607468 47.082790,139.320938 47.082790,135.040375 
	C46.668549,134.788895 46.254311,134.537399 45.840069,134.285919 
	C44.959358,135.164337 43.340103,136.029068 43.323524,136.923508 
	C43.244293,141.198746 43.599670,145.482071 44.684048,150.009109 
M585.089294,175.398590 
	C585.089294,172.969757 585.089294,170.540939 585.089294,168.112106 
	C584.576721,167.863052 584.064148,167.613998 583.551636,167.364944 
	C582.766663,168.441177 581.536682,169.428040 581.298523,170.614090 
	C580.917297,172.511917 580.939819,174.587540 581.283081,176.499802 
	C581.507996,177.752914 582.599365,178.850494 583.302734,180.017731 
	C583.898315,178.787811 584.493958,177.557892 585.089294,175.398590 
M333.264984,171.508972 
	C333.251312,169.516708 333.387939,167.504944 333.133453,165.543945 
	C333.055878,164.946136 331.958344,164.238174 331.216858,164.069794 
	C330.837158,163.983536 329.780884,164.964813 329.766113,165.484573 
	C329.643341,169.797516 329.622345,174.117889 329.778473,178.428497 
	C329.797974,178.967148 330.974121,179.707184 331.721466,179.874039 
	C332.097382,179.957962 333.099243,179.001129 333.152496,178.450562 
	C333.343597,176.475449 333.250641,174.472839 333.264984,171.508972 
M94.808838,179.263809 
	C96.908585,180.700790 98.211243,180.420334 98.249176,177.614273 
	C98.282875,175.121567 98.402550,172.613693 98.165337,170.143127 
	C98.089706,169.355453 96.992653,168.665833 96.362976,167.931351 
	C95.794083,168.733154 94.801247,169.501526 94.734917,170.342941 
	C94.526596,172.985443 94.666847,175.655426 94.808838,179.263809 
z"/>
<path fill="#57D633" opacity="1.000000" stroke="none" 
	d="
M242.832993,95.860519 
	C206.041061,95.897736 169.248917,95.998314 132.457504,95.877701 
	C128.626572,95.865143 126.691559,96.927208 124.902885,100.430862 
	C118.409752,113.149597 105.134155,122.119484 85.740479,120.079620 
	C72.875526,118.726471 59.732788,107.715424 55.627769,94.368431 
	C50.490303,77.664543 56.045128,62.143188 67.875320,52.776310 
	C80.186340,43.028717 97.214043,41.709499 111.273361,49.948898 
	C119.749718,54.916416 125.363327,62.390507 128.293427,72.042564 
	C135.392563,72.042564 142.372864,72.042564 149.353180,72.042564 
	C178.321289,72.042564 207.289383,72.037010 236.257492,72.053833 
	C238.417526,72.055084 240.577484,72.216705 243.429764,72.537628 
	C249.382553,74.937500 252.146713,78.695351 252.081421,84.554298 
	C252.010818,90.891014 248.014648,93.811409 242.832993,95.860519 
M102.540680,102.851021 
	C104.460503,101.255936 106.380318,99.660843 108.927910,97.873901 
	C114.119438,91.715057 116.736061,84.984268 113.371460,76.219933 
	C111.740662,72.083191 110.435600,67.652000 104.991035,66.371651 
	C101.513443,61.040440 89.752693,59.710758 82.377220,63.779884 
	C80.097633,65.173714 77.602837,66.310249 75.575607,68.005806 
	C66.672859,75.452003 68.613037,95.011909 79.323997,101.678032 
	C84.828423,103.972816 90.302666,106.631279 96.749306,103.440575 
	C98.468811,103.332520 100.188309,103.224472 102.540680,102.851021 
z"/>
<path fill="#D4D4D4" opacity="1.000000" stroke="none" 
	d="
M365.216919,72.934616 
	C366.819794,72.623741 368.422516,72.041893 370.025574,72.040977 
	C439.008301,72.001373 507.991058,72.012726 576.973816,72.026428 
	C577.803772,72.026588 578.633789,72.137871 579.830566,72.572662 
	C580.114014,73.290787 580.030701,73.633545 579.965881,73.974152 
	C579.984436,73.971992 579.959290,73.936996 579.617432,73.979599 
	C570.672119,80.116600 567.894592,86.835487 570.281189,95.779480 
	C569.120972,95.850128 567.960693,95.982613 566.800476,95.982597 
	C499.460907,95.981628 432.121338,95.969696 364.359131,95.584549 
	C364.271698,94.133896 364.606873,93.057533 365.144409,91.728516 
	C365.551880,90.651924 365.756989,89.827965 366.186066,88.818939 
	C366.464813,88.075859 366.519623,87.517853 366.695984,86.650116 
	C366.829956,85.899597 366.842377,85.458801 366.968018,84.573997 
	C366.408234,80.722923 365.735260,77.315857 365.056152,73.927620 
	C365.050049,73.946449 365.089844,73.922546 365.089294,73.671402 
	C365.131439,73.258385 365.174164,73.096504 365.216919,72.934616 
z"/>
<path fill="#D4D4D4" opacity="1.000000" stroke="none" 
	d="
M243.309601,95.923912 
	C248.014648,93.811409 252.010818,90.891014 252.081421,84.554298 
	C252.146713,78.695351 249.382553,74.937500 243.875824,72.520607 
	C269.269165,72.251511 294.908783,72.233284 320.929932,72.735657 
	C321.135620,77.210632 320.959747,81.165024 320.820892,85.464096 
	C321.161957,86.866798 321.466034,87.924812 321.804565,89.350403 
	C322.563721,91.460587 323.288483,93.203194 323.992523,95.210274 
	C323.980530,95.651390 323.989258,95.828026 323.997955,96.004669 
	C297.260712,95.998886 270.523468,95.993095 243.309601,95.923912 
z"/>
<path fill="#D4D4D4" opacity="1.000000" stroke="none" 
	d="
M614.450745,71.960464 
	C617.767700,71.977928 621.084961,71.971886 624.401550,72.017555 
	C632.302002,72.126328 636.963440,76.647896 636.999390,84.205666 
	C637.033325,91.337868 632.482300,95.772141 624.597351,95.957077 
	C618.299133,96.104805 611.993835,95.950958 605.273560,95.509155 
	C608.053894,87.378387 611.252319,79.669426 614.450745,71.960464 
z"/>
<path fill="#6B9E38" opacity="1.000000" stroke="none" 
	d="
M324.013245,94.945801 
	C323.288483,93.203194 322.563721,91.460587 322.153137,89.484253 
	C324.946442,92.442047 328.049103,91.664032 331.447418,91.081055 
	C342.103485,89.253006 351.734253,85.907837 357.650024,75.943993 
	C360.275879,71.521324 359.216034,69.123520 353.661316,67.990845 
	C351.545319,67.987305 349.774139,67.989105 347.814758,67.743752 
	C346.748993,67.686241 345.871460,67.875885 344.661926,68.057922 
	C343.887115,68.053848 343.444336,68.057388 342.993958,67.734192 
	C342.983154,66.971695 342.979889,66.535942 342.976624,66.100189 
	C343.658112,59.811359 346.589600,55.489391 355.078674,53.841442 
	C353.111206,58.382969 351.630066,61.801929 349.967773,65.639038 
	C355.431061,65.740349 361.682861,65.874214 365.071777,72.616089 
	C365.174164,73.096504 365.131439,73.258385 364.706421,73.703690 
	C363.582184,74.492447 362.525024,74.827675 362.146576,75.529114 
	C357.816986,83.553139 351.525116,88.928162 342.484039,91.060059 
	C338.728821,91.945557 335.166962,93.625633 331.442291,94.679764 
	C330.088562,95.062881 328.516052,94.629799 327.045013,94.656593 
	C326.032990,94.675018 325.023743,94.844063 324.013245,94.945801 
z"/>
<path fill="#555842" opacity="1.000000" stroke="none" 
	d="
M614.447754,71.578873 
	C611.252319,79.669426 608.053894,87.378387 604.790527,95.455124 
	C596.862610,107.272446 586.680725,108.923576 575.489502,100.329651 
	C576.703796,100.270081 577.645447,100.613106 578.607178,100.684319 
	C584.384338,101.112144 590.435364,102.634018 595.055847,96.842010 
	C595.539124,96.476036 595.764893,96.202362 596.325928,95.924393 
	C597.421875,94.944679 598.182617,93.969261 599.252930,92.828789 
	C600.709473,90.086258 601.856384,87.508781 603.195801,84.852615 
	C603.638611,84.548920 603.667175,84.298561 603.599976,83.723938 
	C603.779968,83.215630 603.834045,83.006233 604.187500,82.652504 
	C607.369385,77.258926 610.251953,72.009682 613.400574,66.856163 
	C614.010559,67.104515 614.354492,67.257133 614.698486,67.409760 
	C614.613953,68.672272 614.529358,69.934769 614.447754,71.578873 
z"/>
<path fill="#496F2A" opacity="1.000000" stroke="none" 
	d="
M358.055542,102.162140 
	C357.842468,102.405167 357.629364,102.648178 356.752502,102.912300 
	C354.190460,103.385735 352.292175,103.838051 350.393921,104.290375 
	C345.104431,102.066246 339.972687,103.991570 334.352386,104.424744 
	C332.430817,101.018135 333.222473,99.792480 336.559387,98.792290 
	C342.967407,96.871574 349.085602,93.999855 355.455170,91.925316 
	C357.429993,91.282112 359.828766,91.940536 362.023773,92.404091 
	C361.689484,94.889061 361.364868,96.972984 361.040253,99.056900 
	C361.040253,99.056900 360.998077,99.005997 360.670288,99.028915 
	C359.580200,100.088608 358.817871,101.125366 358.055542,102.162140 
z"/>
<path fill="#575757" opacity="1.000000" stroke="none" 
	d="
M351.914825,134.139496 
	C352.306946,139.416351 352.306946,144.506866 352.306946,151.329849 
	C350.168884,149.281403 348.885284,148.051575 347.295044,146.528000 
	C344.160858,149.091980 340.255402,152.789139 335.726685,147.726700 
	C333.448303,145.179810 333.757690,142.177094 336.123291,139.651886 
	C338.961578,136.622086 342.341064,137.235016 348.333832,142.168350 
	C348.529663,140.064590 348.391205,138.304382 348.935059,136.789078 
	C349.334015,135.677399 350.627747,134.886841 351.914825,134.139496 
z"/>
<path fill="#525252" opacity="1.000000" stroke="none" 
	d="
M50.169945,171.431992 
	C48.440014,173.873184 47.154671,176.526505 45.671219,179.588760 
	C42.594887,179.618118 42.594887,179.618118 43.547626,167.836884 
	C46.874115,168.149887 50.229763,168.517273 53.594719,168.750381 
	C54.588131,168.819214 55.660515,168.240494 56.604855,168.426041 
	C58.802444,168.857819 62.430214,169.089798 62.815018,170.270645 
	C63.766708,173.191162 63.223190,176.598923 63.280540,179.810867 
	C62.336853,179.810867 61.393166,179.810867 59.998444,179.810867 
	C59.998444,177.824310 60.238426,175.990753 59.911037,174.264832 
	C59.705105,173.179184 58.648712,172.254868 57.973854,171.258163 
	C57.157497,172.280350 56.073982,173.194946 55.605839,174.357361 
	C55.201500,175.361359 55.821152,176.787781 55.395084,177.770279 
	C54.934311,178.832825 53.785980,179.597198 52.596008,180.851669 
	C51.761612,176.974396 51.188068,174.309250 50.169945,171.431992 
z"/>
<path fill="#525252" opacity="1.000000" stroke="none" 
	d="
M107.583603,143.829498 
	C106.729828,146.286148 109.426903,150.429199 103.737404,149.863861 
	C103.737404,148.080322 104.060501,146.379913 103.640907,144.888458 
	C103.267517,143.561234 102.071480,142.465439 101.238518,141.267502 
	C100.519981,142.410324 99.460335,143.473328 99.169510,144.716232 
	C98.808281,146.260010 99.082909,147.952560 99.082909,149.571884 
	C94.590782,149.620010 94.590782,149.620010 95.549133,137.834549 
	C98.877625,138.149948 102.234955,138.520660 105.601799,138.754669 
	C106.595390,138.823746 107.669754,138.234406 108.613113,138.421280 
	C110.810631,138.856613 114.437126,139.098770 114.820755,140.282516 
	C115.766632,143.201141 115.213257,146.605652 115.262627,149.814819 
	C114.320877,149.814819 113.379128,149.814819 111.975883,149.814819 
	C111.975883,147.640823 112.185463,145.651611 111.884438,143.742920 
	C111.741280,142.835220 110.625259,142.080948 109.949951,141.257172 
	C109.180695,141.958527 108.411438,142.659866 107.583603,143.829498 
z"/>
<path fill="#5F8D34" opacity="1.000000" stroke="none" 
	d="
M323.992523,95.210266 
	C325.023743,94.844063 326.032990,94.675018 327.045013,94.656593 
	C328.516052,94.629799 330.088562,95.062881 331.442291,94.679764 
	C335.166962,93.625633 338.728821,91.945557 342.484039,91.060059 
	C351.525116,88.928162 357.816986,83.553139 362.146576,75.529114 
	C362.525024,74.827675 363.582184,74.492447 364.706970,73.954834 
	C365.089844,73.922546 365.050049,73.946449 365.042358,74.343124 
	C365.344604,77.502098 365.654572,80.264397 365.582581,83.021378 
	C364.093231,83.259064 362.686340,83.150925 361.925262,83.800034 
	C355.247467,89.495613 347.609039,92.999237 339.061676,94.942215 
	C334.865234,95.896164 330.889160,97.819603 326.813354,99.304283 
	C326.046692,98.326675 325.280029,97.349068 324.255676,96.188065 
	C323.989258,95.828026 323.980530,95.651390 323.992523,95.210266 
z"/>
<path fill="#547E30" opacity="1.000000" stroke="none" 
	d="
M326.924744,99.612335 
	C330.889160,97.819603 334.865234,95.896164 339.061676,94.942215 
	C347.609039,92.999237 355.247467,89.495613 361.925262,83.800034 
	C362.686340,83.150925 364.093231,83.259064 365.605103,83.307480 
	C366.291260,84.071915 366.573029,84.544952 366.854797,85.017990 
	C366.842377,85.458801 366.829956,85.899597 366.436707,86.707001 
	C366.024628,87.717072 365.993347,88.360542 365.962097,89.004013 
	C365.756989,89.827965 365.551880,90.651924 364.780579,91.731354 
	C363.487396,91.992233 362.760406,91.997635 362.033447,92.003036 
	C359.828766,91.940536 357.429993,91.282112 355.455170,91.925316 
	C349.085602,93.999855 342.967407,96.871574 336.559387,98.792290 
	C333.222473,99.792480 332.430817,101.018135 333.961121,104.315018 
	C331.691467,103.082603 329.363800,101.501495 326.924744,99.612335 
z"/>
<path fill="#575757" opacity="1.000000" stroke="none" 
	d="
M91.046082,179.827316 
	C89.268692,179.843567 87.844376,179.889297 86.530045,179.531250 
	C84.223396,178.902878 80.894966,178.651016 80.001839,177.091705 
	C78.965767,175.282852 79.269951,171.642471 80.524506,169.900635 
	C81.658310,168.326462 84.856651,168.239288 87.318764,168.015686 
	C88.685379,167.101181 86.382973,162.357986 91.448677,164.364273 
	C91.448677,169.493362 91.448677,174.584167 91.046082,179.827316 
z"/>
<path fill="#575757" opacity="1.000000" stroke="none" 
	d="
M546.858459,140.163300 
	C546.858459,138.216232 546.858459,136.733749 546.858459,133.600266 
	C551.056274,134.983109 554.812866,135.710114 557.883362,137.569916 
	C558.711853,138.071732 557.459167,142.009674 557.161743,144.370377 
	C556.743103,144.359421 556.324524,144.348450 555.905884,144.337479 
	C556.714294,146.078156 557.522705,147.818817 558.331116,149.559479 
	C557.952271,149.958206 557.573425,150.356934 557.194580,150.755661 
	C555.229370,149.102463 553.264099,147.449249 550.928223,145.484253 
	C550.028259,146.602341 551.865601,151.583832 546.858459,149.520248 
	C546.858459,146.559952 546.858459,143.593933 546.858459,140.163300 
z"/>
<path fill="#AABD62" opacity="1.000000" stroke="none" 
	d="
M320.783875,85.119408 
	C320.959747,81.165024 321.135620,77.210632 321.408997,72.888931 
	C325.282990,67.468735 329.605560,63.545025 336.660034,65.550125 
	C336.132233,66.561562 335.574249,67.230431 334.845856,68.145096 
	C333.426697,68.566757 332.177948,68.742615 330.609741,68.980743 
	C329.176483,69.669724 328.062714,70.296448 326.584656,70.978249 
	C321.770599,75.006889 321.909637,80.593620 326.509644,82.656281 
	C332.850067,85.499336 340.726227,80.846626 341.530579,74.080978 
	C343.759918,78.658562 342.457794,83.054466 337.939575,84.305679 
	C333.464447,85.544960 328.635345,85.506172 323.681519,85.990219 
	C322.528961,85.674782 321.656433,85.397095 320.783875,85.119408 
z"/>
<path fill="#545454" opacity="1.000000" stroke="none" 
	d="
M337.459747,169.046783 
	C341.072083,168.437790 344.370026,168.094223 347.939514,167.722382 
	C347.939514,171.940308 347.939514,175.677765 347.939514,180.498093 
	C344.083008,179.636658 339.816772,179.688019 336.893646,177.732071 
	C334.272003,175.977875 334.952850,172.104889 337.459747,169.046783 
z"/>
<path fill="#525252" opacity="1.000000" stroke="none" 
	d="
M578.907104,170.499893 
	C578.829956,178.772171 575.490051,180.963882 565.526123,179.557892 
	C565.432373,178.990829 565.243042,178.364136 565.238892,177.736221 
	C565.211975,173.612595 565.225037,169.488708 565.225037,165.424698 
	C573.128540,163.727737 575.850952,164.694550 578.907104,170.499893 
M572.840393,168.371124 
	C571.651978,168.311951 570.463501,168.252777 569.273804,168.193542 
	C569.273804,171.298157 569.273804,173.899460 569.273804,176.507568 
	C575.292603,176.235123 576.519104,173.921295 572.840393,168.371124 
z"/>
<path fill="#575757" opacity="1.000000" stroke="none" 
	d="
M120.036034,167.848877 
	C122.763016,167.967651 125.083519,168.116348 127.626389,168.279282 
	C127.626389,172.026810 127.626389,175.785751 127.626389,179.668686 
	C125.042412,179.800156 122.370956,180.570984 120.181358,179.859314 
	C118.203911,179.216583 115.842041,177.229599 115.269241,175.343582 
	C114.230370,171.922928 115.385162,168.736435 120.036034,167.848877 
z"/>
<path fill="#575757" opacity="1.000000" stroke="none" 
	d="
M130.848663,145.786530 
	C130.824661,148.160004 131.392365,150.305496 128.056763,150.049545 
	C119.739563,149.411301 117.842781,148.380341 117.967606,143.851257 
	C118.059982,140.499481 119.438385,138.003754 123.181190,137.876907 
	C125.496262,137.798447 127.823982,138.093124 130.848816,138.258804 
	C130.848816,140.533615 130.848816,142.937134 130.848663,145.786530 
z"/>
<path fill="#575757" opacity="1.000000" stroke="none" 
	d="
M71.050224,140.669800 
	C71.200279,140.735840 71.421478,140.902359 71.490280,140.853638 
	C79.408707,135.247574 82.017998,137.638916 85.604095,144.181488 
	C86.043617,144.017395 86.064346,143.904724 86.064346,143.904724 
	C85.500565,144.032684 84.499001,144.054062 84.438026,144.304459 
	C83.351631,148.766068 80.545059,150.895859 76.102646,149.794647 
	C71.556496,148.667725 71.375000,144.916077 71.463074,140.840149 
	C71.072456,140.603897 71.050224,140.669815 71.050224,140.669800 
z"/>
<path fill="#575757" opacity="1.000000" stroke="none" 
	d="
M376.908691,176.103867 
	C375.758698,177.478745 374.872070,178.808075 373.629791,179.474380 
	C370.470154,181.169128 366.123322,179.386353 364.974884,176.158707 
	C363.816528,172.903244 365.594879,169.109497 368.758636,168.086761 
	C372.565582,166.856110 376.373138,168.971191 377.072388,172.798248 
	C377.246063,173.748764 377.041077,174.768478 376.908691,176.103867 
z"/>
<path fill="#AABD62" opacity="1.000000" stroke="none" 
	d="
M594.798401,96.934311 
	C590.435364,102.634018 584.384338,101.112144 578.607178,100.684319 
	C577.645447,100.613106 576.703796,100.270081 575.325928,100.027817 
	C574.898926,100.002991 574.991882,99.983345 574.817017,99.777779 
	C574.259644,99.392601 573.877136,99.212982 573.494629,99.033363 
	C572.574280,98.074379 571.653992,97.115395 570.507446,95.967949 
	C567.894592,86.835487 570.672119,80.116600 579.614258,74.311676 
	C579.292053,75.723175 578.631104,76.845215 577.670898,78.146492 
	C573.873291,83.099686 571.645447,88.059105 575.109497,94.219398 
	C577.404358,96.056435 579.647339,98.643372 581.997253,98.744385 
	C586.230530,98.926331 590.527832,97.619339 594.798401,96.934311 
z"/>
<path fill="#545454" opacity="1.000000" stroke="none" 
	d="
M324.698822,173.951904 
	C323.024261,174.326004 321.731445,174.597198 321.083130,174.733185 
	C319.858673,176.957184 318.871979,178.749344 317.885284,180.541519 
	C317.360962,180.310715 316.836609,180.079895 316.312256,179.849091 
	C316.312256,174.969589 316.312256,170.090073 316.312256,164.929871 
	C320.148590,165.056000 324.658295,163.072906 326.937805,167.595505 
	C327.650177,169.008896 325.772552,171.727722 324.698822,173.951904 
z"/>
<path fill="#525252" opacity="1.000000" stroke="none" 
	d="
M356.975708,133.938385 
	C358.196960,135.272827 358.982819,136.624878 359.876709,138.162750 
	C366.797424,137.056183 368.420532,139.421829 365.987854,150.461945 
	C365.242950,149.435120 364.212769,148.503113 363.831299,147.355469 
	C363.429291,146.146011 363.909027,144.643570 363.507385,143.433853 
	C363.207245,142.529846 362.118988,141.887482 361.381683,141.128586 
	C360.644348,141.899200 359.415405,142.587631 359.270081,143.457199 
	C358.947937,145.384399 359.169739,147.402527 359.169739,150.182434 
	C357.621918,149.774902 355.584167,149.456360 355.592712,149.208481 
	C355.768463,144.119492 356.177612,139.038528 356.975708,133.938385 
z"/>
<path fill="#4F4F4F" opacity="1.000000" stroke="none" 
	d="
M112.956833,165.421021 
	C112.982262,170.507797 112.982262,175.135086 112.982262,179.656509 
	C110.250259,179.802490 107.800026,180.361328 105.550003,179.913727 
	C103.853058,179.576157 101.478752,178.221848 101.075157,176.834518 
	C100.460228,174.720673 100.493568,171.553970 101.725037,170.008072 
	C102.980331,168.432251 106.016350,168.274963 108.854454,167.295898 
	C109.474075,163.700073 109.474075,163.700073 112.956833,165.421021 
M107.982101,171.564423 
	C105.293495,170.430649 104.122009,171.883484 104.240623,174.231018 
	C104.286430,175.137695 105.806541,175.969879 106.654953,176.835999 
	C107.259781,175.274628 107.864609,173.713242 107.982101,171.564423 
z"/>
<path fill="#4F4F4F" opacity="1.000000" stroke="none" 
	d="
M601.821167,149.862366 
	C601.399902,144.634323 601.399902,139.520081 601.399902,134.405823 
	C601.742615,134.113052 602.085266,133.820282 602.427979,133.527527 
	C603.573059,134.912170 604.718201,136.296829 605.817810,137.626480 
	C607.841309,138.309158 610.834412,138.509567 612.402710,140.107971 
	C613.624329,141.352966 613.864014,144.692230 613.078430,146.446152 
	C612.346008,148.081421 609.811890,149.237213 607.835144,149.887863 
	C606.144470,150.444412 604.119568,149.985779 601.821167,149.862366 
M605.551331,142.152695 
	C606.157410,143.714371 606.763550,145.276047 607.369690,146.837738 
	C608.217163,145.969772 609.727905,145.141739 609.783020,144.226059 
	C609.927307,141.828949 608.704895,140.452988 605.551331,142.152695 
z"/>
<path fill="#525252" opacity="1.000000" stroke="none" 
	d="
M297.876709,146.849426 
	C297.875763,142.715836 297.875763,139.063797 297.875763,135.070297 
	C300.990906,135.070297 303.877289,135.070297 306.763702,135.070297 
	C306.980865,135.508072 307.198029,135.945831 307.415192,136.383606 
	C305.667694,137.109100 303.920166,137.834595 300.969513,139.059601 
	C303.267120,140.184921 304.915131,140.992081 307.603424,142.308762 
	C305.896729,143.004349 304.838348,143.296265 303.936218,143.845047 
	C303.133606,144.333298 302.504150,145.106140 301.798248,145.753387 
	C302.562103,146.158035 303.317108,146.580719 304.092041,146.962860 
	C305.105042,147.462357 306.133881,147.929794 307.155884,148.411011 
	C306.029907,148.950546 304.723114,150.146530 303.814697,149.896301 
	C301.771271,149.333496 297.953400,152.364975 297.876709,146.849426 
z"/>
<path fill="#575757" opacity="1.000000" stroke="none" 
	d="
M379.560455,148.630936 
	C376.171753,150.795319 372.825562,150.871231 370.943481,147.812408 
	C369.791626,145.940430 369.582123,142.467545 370.591614,140.602539 
	C371.433380,139.047424 374.687988,138.050980 376.834198,138.116165 
	C380.492889,138.227295 381.360291,141.209961 381.457703,144.677338 
	C378.849792,144.883469 376.485413,145.070343 374.121063,145.257217 
	C374.155243,145.687943 374.189392,146.118652 374.223541,146.549362 
	C375.684967,146.353653 377.141907,146.109360 378.608856,145.973450 
	C380.874847,145.763550 381.390320,146.545456 379.560455,148.630936 
z"/>
<path fill="#575757" opacity="1.000000" stroke="none" 
	d="
M566.897522,146.813080 
	C568.730225,146.418549 570.105042,146.101151 572.183044,145.621429 
	C570.406677,150.056580 567.531921,150.770401 564.299744,149.665192 
	C561.005066,148.538635 560.010620,145.786133 560.695374,142.417175 
	C561.378784,139.054337 563.618591,137.694046 566.823242,137.859299 
	C570.973755,138.073334 572.481445,140.585205 572.344604,145.011658 
	C570.201416,145.011658 568.240601,145.011658 566.279785,145.011658 
	C566.333069,145.637848 566.386414,146.264038 566.897522,146.813080 
z"/>
<path fill="#545454" opacity="1.000000" stroke="none" 
	d="
M75.622818,169.114471 
	C76.660141,170.935760 77.389198,172.505203 78.372665,174.622314 
	C75.174217,174.847610 72.690788,175.022537 70.207367,175.197464 
	C70.208153,175.623505 70.208946,176.049545 70.209732,176.475571 
	C72.454437,176.336975 74.699142,176.198380 77.360741,176.034027 
	C75.460945,180.291000 72.407997,180.871567 69.067146,179.440872 
	C65.544083,177.932159 64.941757,174.546326 66.228920,171.443878 
	C67.986000,167.208801 71.502403,166.997131 75.622818,169.114471 
z"/>
<path fill="#545454" opacity="1.000000" stroke="none" 
	d="
M621.061646,150.054276 
	C616.345032,149.362259 614.705322,146.599945 615.390381,142.575516 
	C615.981995,139.100647 618.447144,137.526321 621.932251,137.899704 
	C625.790405,138.313049 627.331726,140.671906 627.031250,144.723999 
	C624.483337,144.878052 621.974548,145.029739 619.465759,145.181427 
	C619.477051,145.595810 619.488403,146.010193 619.499756,146.424576 
	C621.794983,146.308548 624.090149,146.192520 626.385376,146.076477 
	C626.577209,146.460251 626.769043,146.844025 626.960938,147.227798 
	C625.125305,148.177673 623.289612,149.127548 621.061646,150.054276 
z"/>
<path fill="#4F4F4F" opacity="1.000000" stroke="none" 
	d="
M621.991577,176.699905 
	C621.951416,177.814850 621.937012,179.044693 621.868469,179.047714 
	C618.544006,179.194534 614.894653,180.063797 612.016724,178.951035 
	C610.499756,178.364487 609.483032,174.204376 609.747070,171.824936 
	C610.143494,168.251434 613.106445,167.426788 616.566406,168.132080 
	C618.049500,168.434402 619.673828,168.043304 621.991943,167.930344 
	C621.991943,170.773117 621.991943,173.507782 621.991577,176.699905 
M616.907532,176.305145 
	C616.753845,174.613464 616.600220,172.921783 616.446533,171.230118 
	C615.384827,171.786621 614.323181,172.343140 613.261475,172.899628 
	C614.268188,174.175644 615.274841,175.451645 616.907532,176.305145 
z"/>
<path fill="#545454" opacity="1.000000" stroke="none" 
	d="
M586.999634,143.194580 
	C587.908752,138.830887 590.517212,137.302536 594.333435,137.998489 
	C597.852966,138.640335 599.089478,141.116959 598.840027,144.859955 
	C596.319092,144.859955 593.879822,144.859955 591.440491,144.859955 
	C591.412048,145.255020 591.383545,145.650101 591.355103,146.045166 
	C593.604309,146.045166 595.853516,146.045166 598.102783,146.045166 
	C598.254578,146.648727 598.406372,147.252304 598.558167,147.855865 
	C596.346680,148.564499 594.101807,149.938797 591.931396,149.829712 
	C588.457520,149.655121 586.976074,146.988510 586.999634,143.194580 
z"/>
<path fill="#545454" opacity="1.000000" stroke="none" 
	d="
M596.767822,174.942810 
	C594.694397,174.947464 593.041199,174.947464 591.387939,174.947464 
	C591.365417,175.319183 591.342896,175.690903 591.320374,176.062622 
	C593.512024,176.062622 595.703674,176.062622 598.318665,176.062622 
	C596.995605,179.917221 594.330688,180.626907 591.253723,179.790619 
	C587.845337,178.864273 586.558533,176.191788 587.071472,172.818710 
	C587.563721,169.581482 589.620056,167.880417 592.926941,167.834793 
	C596.263245,167.788757 598.285278,169.522339 598.802368,172.728912 
	C598.904480,173.362076 597.758423,174.196518 596.767822,174.942810 
z"/>
<path fill="#525252" opacity="1.000000" stroke="none" 
	d="
M49.875526,142.999741 
	C49.958637,141.077438 50.041737,139.636688 50.123463,138.219849 
	C62.418430,138.200180 62.648113,138.429459 61.539761,151.370987 
	C59.862247,149.328201 58.777584,148.367584 58.188835,147.164337 
	C57.793293,146.355942 58.394672,145.071838 58.020802,144.237823 
	C57.502972,143.082687 56.487938,142.150452 55.685806,141.122772 
	C55.035065,142.133591 54.144577,143.070236 53.802277,144.176498 
	C53.472332,145.242828 54.024433,146.614822 53.611729,147.614090 
	C53.151615,148.728149 52.040512,149.573334 51.212769,150.535553 
	C50.767017,150.305313 50.321270,150.075073 49.875519,149.844833 
	C49.875519,147.723648 49.875519,145.602478 49.875526,142.999741 
z"/>
<path fill="#525252" opacity="1.000000" stroke="none" 
	d="
M357.585999,167.920242 
	C365.894501,169.113693 361.817871,175.267197 363.180481,179.178619 
	C362.734711,179.566574 362.288971,179.954529 361.843201,180.342484 
	C360.933929,179.333023 359.919128,178.394806 359.166321,177.279709 
	C358.856934,176.821411 359.319458,175.888718 359.069977,175.334183 
	C358.417450,173.883896 357.565948,172.523132 356.793793,171.126663 
	C356.098846,172.600571 355.332916,174.046951 354.744965,175.562378 
	C354.519928,176.142487 354.937958,177.016113 354.649414,177.518509 
	C354.026001,178.604050 353.135254,179.536072 352.353882,180.530914 
	C351.965729,180.309570 351.577606,180.088226 351.189453,179.866882 
	C351.189453,175.997574 351.189453,172.128265 351.189453,167.963333 
	C353.321564,167.963333 355.225403,167.963333 357.585999,167.920242 
z"/>
<path fill="#525252" opacity="1.000000" stroke="none" 
	d="
M329.867615,145.650543 
	C331.014984,145.685043 331.784027,145.764038 332.948669,145.883636 
	C331.420898,149.547577 328.732635,151.078720 325.771606,149.700912 
	C323.780853,148.774597 321.640625,146.102158 321.435730,144.026489 
	C321.255615,142.201752 323.238708,139.231598 325.039856,138.353104 
	C328.033783,136.892807 331.219604,137.699615 332.927948,141.956543 
	C331.479919,141.956543 330.283356,141.947876 329.087036,141.959061 
	C327.944672,141.969757 326.114899,141.596039 325.810913,142.112091 
	C325.266418,143.036453 325.640350,144.501801 325.630371,145.741028 
	C326.916687,145.725693 328.202972,145.710358 329.867615,145.650543 
z"/>
<path fill="#575757" opacity="1.000000" stroke="none" 
	d="
M314.435883,145.494629 
	C312.888977,144.060898 311.342041,142.627167 309.795105,141.193451 
	C310.860657,140.108612 311.756195,138.423813 313.027130,138.063568 
	C315.692474,137.308167 318.371857,137.615799 319.449036,141.479126 
	C318.011719,141.757523 316.678070,142.015839 316.185944,142.111160 
	C317.220245,143.551346 318.775787,145.091095 319.394531,146.943710 
	C319.591553,147.533493 317.442657,149.552811 316.114929,149.873505 
	C313.211548,150.574814 310.567749,149.830276 309.307495,146.239807 
	C310.689178,146.239807 311.803040,146.239807 313.491394,146.603241 
	C314.639130,146.846283 315.212341,146.725891 315.785583,146.605499 
	C315.335693,146.235199 314.885773,145.864914 314.435883,145.494629 
z"/>
<path fill="#525252" opacity="1.000000" stroke="none" 
	d="
M584.050110,148.600281 
	C580.004883,151.033020 576.585022,150.643951 574.582336,146.586258 
	C573.013794,143.408035 573.784180,140.092270 577.154602,138.486938 
	C580.452759,136.916031 583.564514,137.533295 585.947266,142.272522 
	C583.176636,141.869217 581.251709,141.589020 578.502563,141.188858 
	C578.502563,142.784256 578.502563,144.384079 578.502563,145.983917 
	C579.819641,145.890564 581.137512,145.807098 582.453613,145.701614 
	C584.583008,145.530975 586.708618,145.347626 584.050110,148.600281 
z"/>
<path fill="#525252" opacity="1.000000" stroke="none" 
	d="
M134.600037,175.282166 
	C133.225952,173.887299 131.851883,172.492432 130.477814,171.097549 
	C131.594208,170.047684 132.550339,168.441666 133.860474,168.064148 
	C136.560165,167.286224 139.059677,167.903000 140.278564,171.400299 
	C138.810623,171.740891 137.608780,172.019730 137.120438,172.133041 
	C138.084824,173.595016 139.612518,175.110489 140.004150,176.877747 
	C140.173416,177.641495 137.951828,179.838593 136.893570,179.787384 
	C134.509781,179.672058 132.174210,178.560349 129.819031,177.854095 
	C129.973480,177.303421 130.127914,176.752731 130.282364,176.202057 
	C131.245911,176.140366 132.209473,176.078674 133.688263,176.353882 
	C134.965134,176.736069 135.726746,176.781357 136.488373,176.826630 
	C136.532745,176.606995 136.577118,176.387344 136.621475,176.167694 
	C135.947662,175.872513 135.273849,175.577332 134.600037,175.282166 
z"/>
<path fill="#4F4F4F" opacity="1.000000" stroke="none" 
	d="
M70.823654,140.362091 
	C71.050224,140.669815 71.072456,140.603897 71.087135,140.572296 
	C67.127617,141.121689 68.647728,144.245605 68.544746,146.429214 
	C68.429283,148.877640 68.349052,150.857391 64.584236,149.534149 
	C66.227676,144.733246 61.448135,139.616196 65.533379,134.932480 
	C66.486794,133.839417 68.179932,133.391556 69.522354,132.652557 
	C69.935394,135.497192 70.266243,137.775787 70.823654,140.362091 
z"/>
<path fill="#4F4F4F" opacity="1.000000" stroke="none" 
	d="
M603.119873,164.947281 
	C604.822266,167.099777 610.756287,167.615784 605.786499,172.226685 
	C604.920227,173.030396 606.900879,176.902542 607.833008,180.339859 
	C605.878906,179.667145 603.344788,179.562393 602.750671,178.435120 
	C601.390198,175.854050 600.552368,172.802994 600.350098,169.884048 
	C600.241028,168.308273 601.876831,166.611633 603.119873,164.947281 
z"/>
<path fill="#AABD62" opacity="1.000000" stroke="none" 
	d="
M613.134521,66.760422 
	C610.251953,72.009682 607.369385,77.258926 604.093750,82.358368 
	C603.632812,82.013451 603.564941,81.818336 603.621094,81.277771 
	C604.681885,78.863869 605.398315,76.657433 606.592712,74.750420 
	C612.281067,65.669159 611.208496,63.000439 600.990479,61.033264 
	C600.979065,60.547047 600.974243,60.352570 600.969482,60.158096 
	C605.582153,58.867928 610.118591,57.878296 613.101562,63.919930 
	C613.147461,65.332458 613.140991,66.046432 613.134521,66.760422 
z"/>
<path fill="#575757" opacity="1.000000" stroke="none" 
	d="
M135.935287,149.983566 
	C134.729736,149.251434 133.376892,148.525650 133.305573,147.690445 
	C133.041580,144.598969 133.200500,141.471390 133.200500,138.322708 
	C135.841110,138.322708 138.120346,138.322708 140.656906,138.322708 
	C139.265930,142.097565 137.821075,146.018631 135.935287,149.983566 
z"/>
<path fill="#575757" opacity="1.000000" stroke="none" 
	d="
M383.968018,138.128677 
	C386.337952,138.086670 388.319855,138.225922 390.908386,138.407791 
	C389.319214,141.853180 387.673950,145.420135 385.754944,149.580627 
	C382.742218,149.727936 382.328735,148.270844 383.968018,138.128677 
z"/>
<path fill="#575757" opacity="1.000000" stroke="none" 
	d="
M629.191772,144.923325 
	C629.191772,142.501862 629.191772,140.539230 629.191772,138.325165 
	C631.829895,138.325165 634.193787,138.325165 637.015442,138.325165 
	C635.334351,141.868103 633.674622,145.365906 631.684265,149.560562 
	C629.338074,149.884949 629.338074,149.884949 629.191772,144.923325 
z"/>
<path fill="#545454" opacity="1.000000" stroke="none" 
	d="
M86.043427,144.427673 
	C86.064346,143.904724 86.043617,144.017395 86.053116,144.046936 
	C86.062614,142.129715 86.062614,140.182922 86.062614,138.311859 
	C88.684937,138.311859 90.986763,138.311859 93.496170,138.311859 
	C93.496170,139.209244 93.496170,140.140488 93.496170,141.071732 
	C87.179276,140.774170 92.986465,150.224503 86.022499,150.083710 
	C86.022499,148.174179 86.022499,146.562393 86.043427,144.427673 
z"/>
<path fill="#575757" opacity="1.000000" stroke="none" 
	d="
M44.242294,149.885803 
	C43.599670,145.482071 43.244293,141.198746 43.323524,136.923508 
	C43.340103,136.029068 44.959358,135.164337 45.840069,134.285919 
	C46.254311,134.537399 46.668549,134.788895 47.082790,135.040375 
	C47.082790,139.320938 47.197250,143.607468 46.974903,147.876450 
	C46.935913,148.625076 45.483627,149.300095 44.242294,149.885803 
z"/>
<path fill="#575757" opacity="1.000000" stroke="none" 
	d="
M585.089417,175.863281 
	C584.493958,177.557892 583.898315,178.787811 583.302734,180.017731 
	C582.599365,178.850494 581.507996,177.752914 581.283081,176.499802 
	C580.939819,174.587540 580.917297,172.511917 581.298523,170.614090 
	C581.536682,169.428040 582.766663,168.441177 583.551636,167.364944 
	C584.064148,167.613998 584.576721,167.863052 585.089294,168.112106 
	C585.089294,170.540939 585.089294,172.969757 585.089417,175.863281 
z"/>
<path fill="#4F4F4F" opacity="1.000000" stroke="none" 
	d="
M333.265015,171.994812 
	C333.250641,174.472839 333.343597,176.475449 333.152496,178.450562 
	C333.099243,179.001129 332.097382,179.957962 331.721466,179.874039 
	C330.974121,179.707184 329.797974,178.967148 329.778473,178.428497 
	C329.622345,174.117889 329.643341,169.797516 329.766113,165.484573 
	C329.780884,164.964813 330.837158,163.983536 331.216858,164.069794 
	C331.958344,164.238174 333.055878,164.946136 333.133453,165.543945 
	C333.387939,167.504944 333.251312,169.516708 333.265015,171.994812 
z"/>
<path fill="#4F4F4F" opacity="1.000000" stroke="none" 
	d="
M94.740479,178.789276 
	C94.666847,175.655426 94.526596,172.985443 94.734917,170.342941 
	C94.801247,169.501526 95.794083,168.733154 96.362976,167.931351 
	C96.992653,168.665833 98.089706,169.355453 98.165337,170.143127 
	C98.402550,172.613693 98.282875,175.121567 98.249176,177.614273 
	C98.211243,180.420334 96.908585,180.700790 94.740479,178.789276 
z"/>
<path fill="#D4D464" opacity="1.000000" stroke="none" 
	d="
M577.970093,77.967255 
	C578.631104,76.845215 579.292053,75.723175 579.956177,74.269073 
	C579.959290,73.936996 579.984436,73.971992 580.283447,73.968445 
	C581.378662,73.356125 582.174988,72.747360 582.971252,72.138588 
	C584.049927,71.493927 585.128601,70.849258 586.877869,70.086235 
	C588.333923,69.970078 589.119446,69.972282 589.826721,70.230728 
	C589.818054,71.317719 589.887573,72.148460 589.575256,72.999680 
	C585.774658,75.029594 582.355896,77.039032 578.837280,78.819580 
	C578.481628,78.382881 578.225891,78.175072 577.970093,77.967255 
z"/>
<path fill="#B8DD75" opacity="1.000000" stroke="none" 
	d="
M600.627930,60.162376 
	C600.974243,60.352570 600.979065,60.547047 600.812683,61.288536 
	C597.462952,63.591675 594.284424,65.347809 591.040894,67.038422 
	C590.975952,66.972900 590.847290,66.840622 590.847290,66.840622 
	C593.993652,64.615967 597.139954,62.391312 600.627930,60.162376 
z"/>
<path fill="#7CB140" opacity="1.000000" stroke="none" 
	d="
M335.016266,67.899307 
	C335.574249,67.230431 336.132233,66.561562 337.021912,65.745056 
	C338.958893,65.734756 340.564178,65.872101 342.573059,66.054817 
	C342.979889,66.535942 342.983154,66.971695 342.878235,67.938362 
	C342.560883,68.716507 342.301331,68.887299 341.645813,68.949097 
	C340.186523,68.651291 339.072876,68.386047 337.591675,68.088188 
	C336.488159,68.003479 335.752228,67.951393 335.016266,67.899307 
z"/>
<path fill="#5F8D34" opacity="1.000000" stroke="none" 
	d="
M362.023773,92.404083 
	C362.760406,91.997635 363.487396,91.992233 364.578186,91.984001 
	C364.606873,93.057533 364.271698,94.133896 363.880737,95.548851 
	C363.084167,96.859558 362.343353,97.831665 361.321411,98.930344 
	C361.364868,96.972984 361.689484,94.889061 362.023773,92.404083 
z"/>
<path fill="#B8DD75" opacity="1.000000" stroke="none" 
	d="
M589.904907,69.974487 
	C589.119446,69.972282 588.333923,69.970078 587.153931,69.933411 
	C587.916321,68.940437 589.073242,67.981918 590.538696,66.932014 
	C590.847290,66.840622 590.975952,66.972900 591.052063,67.369965 
	C590.720398,68.502838 590.312622,69.238655 589.904907,69.974487 
z"/>
<path fill="#5F8D34" opacity="1.000000" stroke="none" 
	d="
M350.700500,104.517029 
	C352.292175,103.838051 354.190460,103.385735 356.501617,102.942291 
	C354.945374,103.548676 352.976257,104.146172 350.700500,104.517029 
z"/>
<path fill="#5F8D34" opacity="1.000000" stroke="none" 
	d="
M358.375549,102.086365 
	C358.817871,101.125366 359.580200,100.088608 360.700073,99.043159 
	C360.270264,100.026520 359.482910,101.018562 358.375549,102.086365 
z"/>
<path fill="#D4D4D4" opacity="1.000000" stroke="none" 
	d="
M613.400513,66.856155 
	C613.140991,66.046432 613.147461,65.332458 613.216064,64.265503 
	C613.822571,64.857224 614.366943,65.801918 614.804932,67.078186 
	C614.354492,67.257133 614.010559,67.104515 613.400513,66.856155 
z"/>
<path fill="#AABD62" opacity="1.000000" stroke="none" 
	d="
M582.647278,72.084007 
	C582.174988,72.747360 581.378662,73.356125 580.264893,73.970596 
	C580.030701,73.633545 580.114014,73.290787 580.308472,72.708405 
	C581.054138,72.322327 581.688721,72.175873 582.647278,72.084007 
z"/>
<path fill="#555842" opacity="1.000000" stroke="none" 
	d="
M573.707275,99.269829 
	C573.877136,99.212982 574.259644,99.392601 574.836609,99.821075 
	C574.660706,99.882057 574.290283,99.694176 573.707275,99.269829 
z"/>
<path fill="#76A14B" opacity="1.000000" stroke="none" 
	d="
M82.954659,63.880192 
	C89.752693,59.710758 101.513443,61.040440 104.788193,66.743568 
	C104.585358,67.115486 104.143646,67.097977 103.800804,66.982162 
	C100.036461,65.122505 98.723663,67.061470 97.587845,69.988800 
	C92.627190,70.456543 88.062363,70.936302 84.128883,71.349709 
	C83.349449,69.420189 82.664101,67.723557 82.269592,65.962006 
	C82.691849,65.224785 82.823250,64.552490 82.954659,63.880192 
z"/>
<path fill="#9EA79D" opacity="1.000000" stroke="none" 
	d="
M82.665939,63.830040 
	C82.823250,64.552490 82.691849,65.224785 81.954254,66.067383 
	C80.207169,67.465141 79.066269,68.692604 77.955612,69.916306 
	C77.985847,69.912537 77.913879,69.892014 77.641800,70.024651 
	C77.199463,71.412483 77.029213,72.667686 76.520012,74.002579 
	C73.817101,74.657928 72.269104,75.657310 73.995804,78.705399 
	C74.347107,80.938667 74.671097,82.809570 74.622681,84.814507 
	C73.923836,86.525658 72.855576,88.471329 73.419395,89.606102 
	C74.751427,92.287025 76.859894,94.582169 78.796066,97.266495 
	C79.230057,97.710548 79.522369,97.921417 79.888031,98.426460 
	C79.989349,98.920830 80.017319,99.121010 79.907982,99.543869 
	C79.485542,100.200096 79.200401,100.633644 78.915268,101.067200 
	C68.613037,95.011909 66.672859,75.452003 75.575607,68.005806 
	C77.602837,66.310249 80.097633,65.173714 82.665939,63.830040 
z"/>
<path fill="#9EA79D" opacity="1.000000" stroke="none" 
	d="
M113.571304,76.969299 
	C116.736061,84.984268 114.119438,91.715057 108.263977,97.975708 
	C107.136429,98.106926 106.672829,98.136337 106.354897,97.849869 
	C107.265717,96.535995 108.493385,95.631966 108.718422,94.524239 
	C109.883743,88.788193 110.792824,83.000076 112.234818,77.155128 
	C112.976036,77.043190 113.273674,77.006248 113.571304,76.969299 
z"/>
<path fill="#D4D4D4" opacity="1.000000" stroke="none" 
	d="
M79.119629,101.372620 
	C79.200401,100.633644 79.485542,100.200096 80.235306,99.516624 
	C81.122391,99.162071 81.544830,99.057434 82.335571,99.022911 
	C85.808067,100.089760 88.912270,101.086502 92.141800,102.172943 
	C92.267128,102.262642 92.563675,102.178520 92.894150,102.381973 
	C94.247040,102.752487 95.269440,102.919548 96.291847,103.086601 
	C90.302666,106.631279 84.828423,103.972816 79.119629,101.372620 
z"/>
<path fill="#D4D4D4" opacity="1.000000" stroke="none" 
	d="
M113.471382,76.594620 
	C113.273674,77.006248 112.976036,77.043190 111.966583,76.973503 
	C110.185516,75.550926 109.116280,74.234978 108.038223,72.604492 
	C107.749794,71.775322 107.470169,71.260704 107.061470,70.470161 
	C106.002808,69.162148 105.073227,68.130066 104.143646,67.097977 
	C104.143646,67.097977 104.585358,67.115486 104.791573,67.036087 
	C110.435600,67.652000 111.740662,72.083191 113.471382,76.594620 
z"/>
<path fill="#D4D4D4" opacity="1.000000" stroke="none" 
	d="
M106.209221,98.165756 
	C106.672829,98.136337 107.136429,98.106926 107.950089,98.071632 
	C106.380318,99.660843 104.460503,101.255936 102.000641,102.653214 
	C99.550613,102.329247 97.640633,102.203072 95.928078,101.802750 
	C96.746109,101.300354 97.366699,101.072105 98.316498,100.919037 
	C99.091408,100.950325 99.537125,100.906418 100.337921,100.915558 
	C102.531746,100.034332 104.370483,99.100044 106.209221,98.165756 
z"/>
<path fill="#547E30" opacity="1.000000" stroke="none" 
	d="
M95.730644,102.076904 
	C97.640633,102.203072 99.550613,102.329247 101.684204,102.785919 
	C100.188309,103.224472 98.468811,103.332520 96.520576,103.263588 
	C95.269440,102.919548 94.247040,102.752487 93.293137,102.344971 
	C94.151306,102.095314 94.940979,102.086113 95.730644,102.076904 
z"/>
<path fill="#6B9E38" opacity="1.000000" stroke="none" 
	d="
M366.968018,84.573990 
	C366.573029,84.544952 366.291260,84.071915 365.987000,83.312782 
	C365.654572,80.264397 365.344604,77.502098 365.048462,74.324295 
	C365.735260,77.315857 366.408234,80.722923 366.968018,84.573990 
z"/>
<path fill="#5F8D34" opacity="1.000000" stroke="none" 
	d="
M366.186066,88.818939 
	C365.993347,88.360542 366.024628,87.717072 366.315155,87.016724 
	C366.519623,87.517853 366.464813,88.075859 366.186066,88.818939 
z"/>
<path fill="#7CB140" opacity="1.000000" stroke="none" 
	d="
M320.820862,85.464096 
	C321.656433,85.397095 322.528961,85.674782 323.841064,86.323608 
	C326.394623,91.136177 329.754456,88.214989 332.525238,87.951935 
	C344.211304,86.842506 352.840302,77.194542 354.006104,67.996185 
	C359.216034,69.123520 360.275879,71.521324 357.650024,75.943993 
	C351.734253,85.907837 342.103485,89.253006 331.447418,91.081055 
	C328.049103,91.664032 324.946442,92.442047 322.118683,89.116669 
	C321.466034,87.924812 321.161957,86.866798 320.820862,85.464096 
z"/>
<path fill="#8EC846" opacity="1.000000" stroke="none" 
	d="
M353.661316,67.990845 
	C352.840302,77.194542 344.211304,86.842506 332.525238,87.951935 
	C329.754456,88.214989 326.394623,91.136177 324.121094,86.361359 
	C328.635345,85.506172 333.464447,85.544960 337.939575,84.305679 
	C342.457794,83.054466 343.759918,78.658562 341.487061,73.740364 
	C341.082550,72.853531 341.075562,72.396248 341.320679,71.736351 
	C341.712311,70.683037 341.851898,69.832344 341.991455,68.981651 
	C342.301331,68.887299 342.560883,68.716507 342.885834,68.265106 
	C343.444336,68.057388 343.887115,68.053848 344.839600,68.276947 
	C346.233856,68.332695 347.118408,68.161804 348.002960,67.990906 
	C349.774139,67.989105 351.545319,67.987305 353.661316,67.990845 
z"/>
<path fill="#7CB140" opacity="1.000000" stroke="none" 
	d="
M347.814758,67.743759 
	C347.118408,68.161804 346.233856,68.332695 345.171631,68.284561 
	C345.871460,67.875885 346.748993,67.686241 347.814758,67.743759 
z"/>
<path fill="#D4D464" opacity="1.000000" stroke="none" 
	d="
M603.497070,81.623215 
	C603.564941,81.818336 603.632812,82.013451 603.794373,82.502701 
	C603.834045,83.006233 603.779968,83.215630 603.473022,83.843491 
	C603.069458,84.459618 602.997192,84.682732 603.003296,84.931290 
	C601.856384,87.508781 600.709473,90.086258 598.916382,92.841545 
	C597.510376,93.989128 596.750549,94.958900 595.990723,95.928680 
	C595.764893,96.202362 595.539124,96.476036 595.055847,96.842010 
	C590.527832,97.619339 586.230530,98.926331 581.997253,98.744385 
	C579.647339,98.643372 577.404358,96.056435 575.503540,94.268013 
	C578.688293,93.933884 581.482666,93.921692 584.638184,93.868301 
	C591.228760,92.521835 595.514893,88.946213 598.105774,82.938416 
	C600.159973,82.499405 601.828552,82.061310 603.497070,81.623215 
z"/>
<path fill="#AABD62" opacity="1.000000" stroke="none" 
	d="
M596.325928,95.924385 
	C596.750549,94.958900 597.510376,93.989128 598.606812,93.006599 
	C598.182617,93.969261 597.421875,94.944679 596.325928,95.924385 
z"/>
<path fill="#AABD62" opacity="1.000000" stroke="none" 
	d="
M603.195801,84.852615 
	C602.997192,84.682732 603.069458,84.459618 603.347046,84.142410 
	C603.667175,84.298561 603.638611,84.548920 603.195801,84.852615 
z"/>
<path fill="#B8DD75" opacity="1.000000" stroke="none" 
	d="
M341.068604,71.938965 
	C341.075562,72.396248 341.082550,72.853531 341.133026,73.651421 
	C340.726227,80.846626 332.850067,85.499336 326.509644,82.656281 
	C321.909637,80.593620 321.770599,75.006889 326.598877,71.397995 
	C326.977020,72.422813 326.694580,73.369789 327.024445,73.694237 
	C328.580475,75.224724 330.123962,77.257896 332.031525,77.768517 
	C333.300018,78.108070 335.173889,76.186020 336.776794,75.276268 
	C335.516571,73.554108 334.319275,71.779884 332.961884,70.138039 
	C332.487152,69.563812 331.618164,69.315575 330.929199,68.918472 
	C332.177948,68.742615 333.426697,68.566757 334.845856,68.145096 
	C335.752228,67.951393 336.488159,68.003479 337.639526,68.403320 
	C339.059509,69.813705 340.064056,70.876335 341.068604,71.938965 
z"/>
<path fill="#F4F299" opacity="1.000000" stroke="none" 
	d="
M330.609741,68.980736 
	C331.618164,69.315575 332.487152,69.563812 332.961884,70.138039 
	C334.319275,71.779884 335.516571,73.554108 336.776794,75.276268 
	C335.173889,76.186020 333.300018,78.108070 332.031525,77.768517 
	C330.123962,77.257896 328.580475,75.224724 327.024445,73.694237 
	C326.694580,73.369789 326.977020,72.422813 326.963135,71.342911 
	C328.062714,70.296448 329.176483,69.669724 330.609741,68.980736 
z"/>
<path fill="#FFFFFF" opacity="1.000000" stroke="none" 
	d="
M573.184448,168.609909 
	C576.519104,173.921295 575.292603,176.235123 569.273804,176.507568 
	C569.273804,173.899460 569.273804,171.298157 569.273804,168.193542 
	C570.463501,168.252777 571.651978,168.311951 573.184448,168.609909 
z"/>
<path fill="#F4F299" opacity="1.000000" stroke="none" 
	d="
M584.276978,93.909508 
	C581.482666,93.921692 578.688293,93.933884 575.499878,93.897461 
	C571.645447,88.059105 573.873291,83.099686 577.670898,78.146500 
	C578.225891,78.175072 578.481628,78.382881 578.678345,79.143013 
	C576.582153,83.157921 575.444397,86.488235 579.978333,89.337364 
	C581.406555,91.097404 582.841797,92.503456 584.276978,93.909508 
z"/>
<path fill="#FFFFFF" opacity="1.000000" stroke="none" 
	d="
M108.225769,171.858154 
	C107.864609,173.713242 107.259781,175.274628 106.654953,176.835999 
	C105.806541,175.969879 104.286430,175.137695 104.240623,174.231018 
	C104.122009,171.883484 105.293495,170.430649 108.225769,171.858154 
z"/>
<path fill="#FFFFFF" opacity="1.000000" stroke="none" 
	d="
M605.792847,141.855347 
	C608.704895,140.452988 609.927307,141.828949 609.783020,144.226059 
	C609.727905,145.141739 608.217163,145.969772 607.369690,146.837738 
	C606.763550,145.276047 606.157410,143.714371 605.792847,141.855347 
z"/>
<path fill="#FFFFFF" opacity="1.000000" stroke="none" 
	d="
M616.594482,176.516403 
	C615.274841,175.451645 614.268188,174.175644 613.261475,172.899643 
	C614.323181,172.343140 615.384827,171.786621 616.446533,171.230103 
	C616.600220,172.921783 616.753845,174.613464 616.594482,176.516403 
z"/>
<path fill="#FFFFFF" opacity="1.000000" stroke="none" 
	d="
M314.198303,145.776489 
	C314.885773,145.864914 315.335693,146.235199 315.785583,146.605499 
	C315.212341,146.725891 314.639130,146.846283 313.792786,146.807861 
	C313.666687,146.452133 313.813721,146.255234 314.198303,145.776489 
z"/>
<path fill="#FFFFFF" opacity="1.000000" stroke="none" 
	d="
M134.429276,175.479965 
	C135.273849,175.577332 135.947662,175.872513 136.621475,176.167694 
	C136.577118,176.387344 136.532745,176.606995 136.488373,176.826630 
	C135.726746,176.781357 134.965134,176.736069 134.066437,176.387253 
	C134.039078,175.948395 134.148788,175.813080 134.429276,175.479965 
z"/>
<path fill="#F4F299" opacity="1.000000" stroke="none" 
	d="
M603.621094,81.277771 
	C601.828552,82.061310 600.159973,82.499405 598.083679,82.574066 
	C597.101685,80.426147 596.527466,78.641663 595.836060,76.558327 
	C594.820801,75.672943 593.922791,75.086403 592.839661,74.269485 
	C591.755432,73.685814 590.856262,73.332504 589.957092,72.979202 
	C589.887573,72.148460 589.818054,71.317719 589.826721,70.230728 
	C590.312622,69.238655 590.720398,68.502838 591.117065,67.435486 
	C594.284424,65.347809 597.462952,63.591675 600.819214,61.580269 
	C611.208496,63.000439 612.281067,65.669159 606.592712,74.750420 
	C605.398315,76.657433 604.681885,78.863869 603.621094,81.277771 
z"/>
<path fill="#E79566" opacity="1.000000" stroke="none" 
	d="
M589.575256,72.999680 
	C590.856262,73.332504 591.755432,73.685814 592.807861,74.675247 
	C591.993225,76.646057 591.031189,77.985115 590.055725,79.314316 
	C588.681946,81.186325 587.298340,83.051071 585.809082,85.241646 
	C583.794617,86.704033 581.889954,87.843689 579.985291,88.983360 
	C575.444397,86.488235 576.582153,83.157921 578.778198,79.371902 
	C582.355896,77.039032 585.774658,75.029594 589.575256,72.999680 
z"/>
<path fill="#AABD62" opacity="1.000000" stroke="none" 
	d="
M341.320679,71.736343 
	C340.064056,70.876335 339.059509,69.813705 338.007080,68.435944 
	C339.072876,68.386047 340.186523,68.651291 341.645813,68.949097 
	C341.851898,69.832344 341.712311,70.683037 341.320679,71.736343 
z"/>
<path fill="#5F8D34" opacity="1.000000" stroke="none" 
	d="
M107.190552,70.746086 
	C107.470169,71.260704 107.749794,71.775322 107.902611,72.919724 
	C107.797417,75.081451 107.819023,76.613396 107.490524,78.052750 
	C104.466232,78.310471 101.792061,78.660774 98.723389,79.004448 
	C95.544899,78.740585 92.498375,73.824303 89.961533,79.614082 
	C89.712486,79.940895 89.510155,80.037819 88.853226,80.026527 
	C86.943260,79.581894 85.296585,79.434029 83.988380,78.690582 
	C81.509377,77.281769 79.224487,75.531372 76.858955,73.922882 
	C77.029213,72.667686 77.199463,71.412483 77.817093,70.266785 
	C78.842094,69.916832 79.419716,69.457390 80.134644,68.945641 
	C80.181969,68.929764 80.091988,68.966194 79.739555,69.115784 
	C78.959854,69.459312 78.442619,69.689690 77.925377,69.920067 
	C79.066269,68.692604 80.207169,67.465141 81.663406,66.132309 
	C82.664101,67.723557 83.349449,69.420189 84.128883,71.349709 
	C88.062363,70.936302 92.627190,70.456543 97.836960,70.271362 
	C101.384781,70.625992 104.287666,70.686035 107.190552,70.746086 
z"/>
<path fill="#496F2A" opacity="1.000000" stroke="none" 
	d="
M107.061470,70.470161 
	C104.287666,70.686035 101.384781,70.625992 98.232788,70.283386 
	C98.723663,67.061470 100.036461,65.122505 103.800804,66.982162 
	C105.073227,68.130066 106.002808,69.162148 107.061470,70.470161 
z"/>
<path fill="#547E30" opacity="1.000000" stroke="none" 
	d="
M99.982834,100.862503 
	C99.537125,100.906418 99.091408,100.950325 98.142487,100.627045 
	C94.850998,98.049118 93.084801,98.990166 92.016472,102.083244 
	C88.912270,101.086502 85.808067,100.089760 82.155899,98.770721 
	C81.010185,98.343033 80.412430,98.237656 79.814682,98.132278 
	C79.522369,97.921417 79.230057,97.710548 79.174423,97.253357 
	C80.275368,96.668884 81.139633,96.330742 82.307823,95.971008 
	C83.016426,95.930908 83.421112,95.912384 84.176788,95.921677 
	C89.577538,94.139755 94.498543,95.789398 99.793488,96.873978 
	C99.844398,97.946381 99.913612,99.404449 99.982834,100.862503 
z"/>
<path fill="#496F2A" opacity="1.000000" stroke="none" 
	d="
M76.520012,74.002579 
	C79.224487,75.531372 81.509377,77.281769 83.988380,78.690582 
	C85.296585,79.434029 86.943260,79.581894 88.712151,80.324173 
	C88.736870,81.685837 88.486549,82.722008 88.158890,84.118881 
	C88.033577,84.720795 87.985603,84.962006 87.619064,85.017853 
	C85.426620,84.155273 83.552742,83.478050 81.687363,82.445572 
	C80.152649,77.290932 78.178398,76.333542 73.968491,78.343033 
	C72.269104,75.657310 73.817101,74.657928 76.520012,74.002579 
z"/>
<path fill="#B8DD75" opacity="1.000000" stroke="none" 
	d="
M73.995804,78.705399 
	C78.178398,76.333542 80.152649,77.290932 81.358398,82.508408 
	C79.399567,83.665131 77.778214,84.403770 75.862259,85.037369 
	C75.376808,84.848373 75.185951,84.764420 74.995087,84.680466 
	C74.671097,82.809570 74.347107,80.938667 73.995804,78.705399 
z"/>
<path fill="#67893D" opacity="1.000000" stroke="none" 
	d="
M74.622688,84.814507 
	C75.185951,84.764420 75.376808,84.848373 75.884567,85.406761 
	C76.483925,90.199486 78.237274,93.673698 82.003899,95.992592 
	C81.139633,96.330742 80.275368,96.668884 79.032745,97.020172 
	C76.859894,94.582169 74.751427,92.287025 73.419395,89.606102 
	C72.855576,88.471329 73.923836,86.525658 74.622688,84.814507 
z"/>
<path fill="#67893D" opacity="1.000000" stroke="none" 
	d="
M79.888031,98.426460 
	C80.412430,98.237656 81.010185,98.343033 81.787605,98.700607 
	C81.544830,99.057434 81.122391,99.162071 80.372620,99.293945 
	C80.017319,99.121010 79.989349,98.920830 79.888031,98.426460 
z"/>
<path fill="#67893D" opacity="1.000000" stroke="none" 
	d="
M87.937630,85.203217 
	C87.985603,84.962006 88.033577,84.720795 88.400803,84.366867 
	C91.683784,87.946976 94.515701,88.136948 97.409912,84.199265 
	C99.972466,89.462830 103.528053,90.566978 107.047699,87.398811 
	C109.836472,84.888519 109.523956,81.984047 108.303650,78.827271 
	C108.262337,78.499748 108.082870,78.278984 107.899323,78.088379 
	C107.895256,78.118523 107.840637,78.145332 107.840637,78.145332 
	C107.819023,76.613396 107.797417,75.081451 107.911423,73.234276 
	C109.116280,74.234978 110.185516,75.550926 111.522995,77.048492 
	C110.792824,83.000076 109.883743,88.788193 108.718422,94.524239 
	C108.493385,95.631966 107.265717,96.535995 106.354897,97.849876 
	C104.370483,99.100044 102.531746,100.034332 100.337921,100.915565 
	C99.913612,99.404449 99.844398,97.946381 99.793488,96.873978 
	C94.498543,95.789398 89.577538,94.139755 84.361435,95.624382 
	C88.329971,93.004250 90.227295,89.879776 87.937630,85.203217 
z"/>
<path fill="#67893D" opacity="1.000000" stroke="none" 
	d="
M92.141800,102.172943 
	C93.084801,98.990166 94.850998,98.049118 97.813286,100.551849 
	C97.366699,101.072105 96.746109,101.300354 95.928078,101.802750 
	C94.940979,102.086113 94.151306,102.095314 92.962662,102.141518 
	C92.563675,102.178520 92.267128,102.262642 92.141800,102.172943 
z"/>
<path fill="#512F17" opacity="1.000000" stroke="none" 
	d="
M579.978333,89.337357 
	C581.889954,87.843689 583.794617,86.704033 586.169434,85.222610 
	C589.744141,82.206284 592.848694,79.531731 595.953308,76.857178 
	C596.527466,78.641663 597.101685,80.426147 597.697998,82.574982 
	C595.514893,88.946213 591.228760,92.521835 584.638184,93.868301 
	C582.841797,92.503456 581.406555,91.097404 579.978333,89.337357 
z"/>
<path fill="#BE4F3A" opacity="1.000000" stroke="none" 
	d="
M595.836060,76.558319 
	C592.848694,79.531731 589.744141,82.206284 586.279236,84.899879 
	C587.298340,83.051071 588.681946,81.186325 590.055725,79.314316 
	C591.031189,77.985115 591.993225,76.646057 592.992920,74.905617 
	C593.922791,75.086403 594.820801,75.672943 595.836060,76.558319 
z"/>
<path fill="#BE4F3A" opacity="1.000000" stroke="none" 
	d="
M108.165504,78.934036 
	C109.523956,81.984047 109.836472,84.888519 107.047699,87.398811 
	C103.528053,90.566978 99.972466,89.462830 97.409485,83.894180 
	C97.188057,82.917549 97.194572,82.509521 97.435562,81.904022 
	C98.152649,80.808052 98.635277,79.909569 99.117889,79.011078 
	C101.792061,78.660774 104.466232,78.310471 107.490524,78.052750 
	C107.840637,78.145332 107.895256,78.118523 107.924614,78.319344 
	C107.953972,78.520164 108.165504,78.934036 108.165504,78.934036 
z"/>
<path fill="#B8DD75" opacity="1.000000" stroke="none" 
	d="
M97.201096,82.101501 
	C97.194572,82.509521 97.188057,82.917549 97.181976,83.630653 
	C94.515701,88.136948 91.683784,87.946976 88.478149,84.006157 
	C88.486549,82.722008 88.736870,81.685837 89.128265,80.352036 
	C89.510155,80.037819 89.712486,79.940895 90.332108,79.462898 
	C92.925606,80.141945 95.063354,81.121719 97.201096,82.101501 
z"/>
<path fill="#496F2A" opacity="1.000000" stroke="none" 
	d="
M97.435562,81.904022 
	C95.063354,81.121719 92.925606,80.141945 90.417297,79.313354 
	C92.498375,73.824303 95.544899,78.740585 98.723389,79.004448 
	C98.635277,79.909569 98.152649,80.808052 97.435562,81.904022 
z"/>
<path fill="#76A14B" opacity="1.000000" stroke="none" 
	d="
M79.997337,68.997948 
	C79.419716,69.457390 78.842094,69.916832 78.089172,70.134140 
	C77.913879,69.892014 77.985847,69.912537 77.955612,69.916306 
	C78.442619,69.689690 78.959854,69.459312 79.738548,69.114471 
	C80.000000,69.000000 79.997337,68.997948 79.997337,68.997948 
z"/>
<path fill="#76A14B" opacity="1.000000" stroke="none" 
	d="
M80.001007,69.001312 
	C80.091988,68.966194 80.181969,68.929764 80.134644,68.945641 
	C79.997337,68.997948 80.000000,69.000000 80.001007,69.001312 
z"/>
<path fill="#BE4F3A" opacity="1.000000" stroke="none" 
	d="
M87.619064,85.017853 
	C90.227295,89.879776 88.329971,93.004250 84.010437,95.596573 
	C83.421112,95.912384 83.016426,95.930908 82.307823,95.971008 
	C78.237274,93.673698 76.483925,90.199486 76.179153,85.511810 
	C77.778214,84.403770 79.399567,83.665131 81.349884,82.863663 
	C83.552742,83.478050 85.426620,84.155273 87.619064,85.017853 
z"/>
<path fill="#5F8D34" opacity="1.000000" stroke="none" 
	d="
M108.303650,78.827271 
	C108.165504,78.934036 107.953972,78.520164 107.928680,78.289200 
	C108.082870,78.278984 108.262337,78.499748 108.303650,78.827271 
z"/>
</svg>